<?xml version="1.0" encoding="UTF-8" standalone="no"?>
<!-- Created with Inkscape (http://www.inkscape.org/) -->

<svg
   version="1.1"
   id="svg1"
   width="380.16"
   height="288.32001"
   viewBox="0 0 380.16 288.32001"
   sodipodi:docname="base.svg"
   inkscape:export-filename="icono.png"
   inkscape:export-xdpi="129.58731"
   inkscape:export-ydpi="129.58731"
   inkscape:version="1.4.2 (ebf0e940d0, 2025-05-08)"
   xmlns:inkscape="http://www.inkscape.org/namespaces/inkscape"
   xmlns:sodipodi="http://sodipodi.sourceforge.net/DTD/sodipodi-0.dtd"
   xmlns="http://www.w3.org/2000/svg"
   xmlns:svg="http://www.w3.org/2000/svg">
  <defs
     id="defs1" />
  <sodipodi:namedview
     id="namedview1"
     pagecolor="#ffffff"
     bordercolor="#000000"
     borderopacity="0.25"
     inkscape:showpageshadow="2"
     inkscape:pageopacity="0.0"
     inkscape:pagecheckerboard="0"
     inkscape:deskcolor="#d1d1d1"
     inkscape:zoom="2.3125"
     inkscape:cx="223.13513"
     inkscape:cy="171.24324"
     inkscape:window-width="1920"
     inkscape:window-height="1029"
     inkscape:window-x="0"
     inkscape:window-y="27"
     inkscape:window-maximized="1"
     inkscape:current-layer="svg1" />
  <text
     xml:space="preserve"
     style="font-style:normal;font-variant:normal;font-weight:normal;font-stretch:normal;font-size:33.4752px;font-family:'Arial Black';-inkscape-font-specification:'Arial Black, ';text-align:start;writing-mode:lr-tb;direction:ltr;text-anchor:start;fill:#000000;fill-opacity:1;stroke-width:0.896655"
     x="-1.5048804"
     y="272.83374"
     id="text9-7"
     transform="scale(0.97369968,1.0270107)"><tspan
       sodipodi:role="line"
       id="tspan9-3"
       x="-1.5048804"
       y="272.83374"
       style="font-style:normal;font-variant:normal;font-weight:normal;font-stretch:normal;font-size:33.4752px;font-family:Arial;-inkscape-font-specification:Arial;stroke-width:0.896655">Vicerrectoría de Extensión</tspan></text>
  <text
     xml:space="preserve"
     style="font-style:normal;font-variant:normal;font-weight:normal;font-stretch:normal;font-size:33.5514px;font-family:'Arial Black';-inkscape-font-specification:'Arial Black, ';text-align:start;writing-mode:lr-tb;direction:ltr;text-anchor:start;opacity:1;fill:#000000;fill-opacity:1;stroke-width:0.898697"
     x="10.561119"
     y="243.53978"
     id="text9"
     transform="scale(0.9759174,1.0246769)"><tspan
       sodipodi:role="line"
       id="tspan9"
       x="10.561119"
       y="243.53978"
       style="font-style:normal;font-variant:normal;font-weight:normal;font-stretch:normal;font-size:33.5514px;font-family:Arial;-inkscape-font-specification:Arial;stroke-width:0.898697">Universidad de Panamá</tspan></text>
  <text
     xml:space="preserve"
     style="font-size:130.583px;font-family:Arial;-inkscape-font-specification:Arial;text-align:start;writing-mode:lr-tb;direction:ltr;text-anchor:start;opacity:1;fill:#f2a341;fill-opacity:1;stroke-width:0.680118"
     x="10.384942"
     y="210.91449"
     id="text8"
     transform="scale(1.004973,0.9950516)"
     inkscape:export-filename="icon_name.png"
     inkscape:export-xdpi="129.58731"
     inkscape:export-ydpi="129.58731"><tspan
       sodipodi:role="line"
       id="tspan8"
       x="10.384942"
       y="210.91449"
       style="font-style:normal;font-variant:normal;font-weight:normal;font-stretch:normal;font-size:130.583px;font-family:'Arial Black';-inkscape-font-specification:'Arial Black, ';fill:#000000;stroke-width:0.680118">VIEX</tspan></text>
  <path
     style="fill:#0e6c30;fill-opacity:1"
     d="m 72.387661,102.9887 6.230085,0.044 C 51.678218,57.412749 60.997354,23.709982 101.08781,0.12086586 43.205447,16.491029 41.448435,72.628712 72.387661,102.9887 Z"
     id="path2"
     sodipodi:nodetypes="cccc" />
  <path
     style="fill:#f2a341;fill-opacity:0.995984"
     d="m 92.714059,103.07864 6.137945,-0.0699 C 82.080684,71.729472 66.762518,38.154032 120.99771,0.26370732 85.034375,11.475897 49.624611,48.654339 92.714059,103.07864 Z"
     id="path3"
     sodipodi:nodetypes="cccc" />
  <path
     style="fill:#0e6c30"
     d="m 299.00159,102.8129 -6.23009,0.044 C 319.71103,57.236944 310.3919,23.534177 270.30144,-0.05493901 328.1838,16.315224 329.94081,72.452907 299.00159,102.8129 Z"
     id="path4"
     sodipodi:nodetypes="cccc" />
  <path
     style="fill:#f2a341;fill-opacity:1"
     d="m 278.67519,102.90284 -6.13794,-0.0699 C 289.30857,71.553667 304.62673,37.978227 250.39154,0.08790245 286.35487,11.300092 321.76464,48.478534 278.67519,102.90284 Z"
     id="path5"
     sodipodi:nodetypes="cccc" />
  <path
     style="opacity:1;fill:#136e33;fill-opacity:0.996046"
     d="m 102.91892,102.7027 36.62162,0.43244 c -4.19763,-28.015925 8.15465,-33.880445 16.36695,-45.286161 -3.83149,-14.164375 -4.0761,-26.432576 6.07224,-34.42423 -29.87455,-19.0332151 -55.44183,8.686195 -40.8638,37.080658 -15.98078,10.099719 -19.46081,25.199739 -18.19701,42.197293 z"
     id="path6"
     sodipodi:nodetypes="cccccc"
     inkscape:export-filename="favicon.png"
     inkscape:export-xdpi="129.58731"
     inkscape:export-ydpi="129.58731" />
  <path
     style="opacity:1;fill:#136e33;fill-opacity:0.996046"
     d="m 269.20254,102.48648 -36.62162,0.43244 c 4.19763,-28.015921 -8.15465,-33.880441 -16.36695,-45.286157 3.7219,-14.821887 3.0303,-28.579408 -6.83668,-34.882894 29.87455,-19.0332151 56.20627,9.144859 41.62824,37.539322 15.98078,10.099719 19.46081,25.199739 18.19701,42.197289 z"
     id="path7"
     sodipodi:nodetypes="cccccc" />
  <path
     style="opacity:1;fill:#f2a341;fill-opacity:1"
     d="m 144.40267,102.93181 h 84.81459 C 229.83073,79.541366 221.26495,66.350081 208.95961,57.313871 231.82525,9.0796792 142.25999,-1.6671654 161.85135,56.72973 144.69659,71.54475 145.07266,87.282048 144.40267,102.93181 Z"
     id="path8"
     sodipodi:nodetypes="ccccc" />
</svg>
